<?xml version="1.0" encoding="UTF-8" ?>
<!DOCTYPE svg PUBLIC "-//W3C//DTD SVG 1.1//EN" "http://www.w3.org/Graphics/SVG/1.1/DTD/svg11.dtd">
<svg width="90pt" height="90pt" viewBox="0 0 90 90" version="1.1" xmlns="http://www.w3.org/2000/svg">
<path fill="#ffffff" d=" M 0.00 0.00 L 90.00 0.00 L 90.00 90.00 L 0.00 90.00 L 0.00 0.00 Z" />
<path fill="#1eaacd" d=" M 2.40 31.76 C 20.77 22.01 39.16 12.30 57.39 2.30 C 67.17 20.63 76.85 39.03 86.84 57.25 C 80.51 60.74 74.00 63.90 67.76 67.56 C 65.27 60.58 63.27 53.39 62.84 45.96 C 61.93 39.35 62.06 32.60 60.54 26.09 C 57.43 25.59 55.28 28.31 53.25 30.22 C 47.79 36.23 44.08 43.56 39.51 50.23 C 36.82 42.92 36.67 35.01 34.34 27.61 C 32.52 25.96 30.66 28.14 29.39 29.37 C 22.61 36.52 18.68 45.73 14.44 54.49 C 10.80 46.72 6.53 39.27 2.40 31.76 Z" />
<path fill="#1eaacd" d=" M 40.61 60.82 C 46.91 53.65 50.41 44.57 55.85 36.79 C 56.74 48.40 57.86 60.06 60.30 71.46 C 50.79 76.52 41.26 81.52 31.84 86.75 C 27.70 78.72 23.36 70.79 19.14 62.80 C 18.06 61.38 19.00 59.77 19.52 58.35 C 22.48 51.38 26.06 44.69 30.00 38.22 C 31.59 45.09 32.57 52.43 36.63 58.37 C 37.67 59.51 38.77 61.61 40.61 60.82 Z" />
</svg>
